PathFileType	4	(X/Y/Z)	60_1_2_p0_0-315.trc
DataRate	CameraRate	NumFrames	NumMarkers	Units	OrigDataRate	OrigDataStartFrame	OrigNumFrames
50.0	50.0	6	27	m	50.0	79	316
Frame#	Time	RHip			RKnee			RAnkle			RBigToe			RSmallToe			RHeel			LHip			LKnee			LAnkle			LBigToe			LSmallToe			LHeel			Neck			Head			Nose			RShoulder			RElbow			RWrist			RThumb			RIndex			RPinky			LShoulder			LElbow			LWrist			LThumb			LIndex			LPinky			
		X1	Y1	Z1	X2	Y2	Z2	X3	Y3	Z3	X4	Y4	Z4	X5	Y5	Z5	X6	Y6	Z6	X7	Y7	Z7	X8	Y8	Z8	X9	Y9	Z9	X10	Y10	Z10	X11	Y11	Z11	X12	Y12	Z12	X13	Y13	Z13	X14	Y14	Z14	X15	Y15	Z15	X16	Y16	Z16	X17	Y17	Z17	X18	Y18	Z18	X19	Y19	Z19	X20	Y20	Z20	X21	Y21	Z21	X22	Y22	Z22	X23	Y23	Z23	X24	Y24	Z24	X25	Y25	Z25	X26	Y26	Z26	X27	Y27	Z27	
79	1.58	0.35182515444412155	0.44375302462435956	-0.19930963819803355	0.34317652882909494	0.6512874238477749	0.2375151195975574	0.33147362886914483	0.8217228363469464	0.6059408308209929	0.2840339325285995	0.6389321981185487	0.676004359653412	0.34877249333955385	0.6419126865542395	0.6709127099463084	0.2929537619471914	0.9232164780534957	0.6580363613166897	0.127592788925518	0.4467111534588122	-0.20697624252983793	0.12294006491772959	0.6487498756137284	0.2215196719253786	0.11846463914876129	0.7909247803635804	0.5941772784993786	0.13075633324175884	0.617884485170651	0.6650593733980336	0.07078877612521432	0.6780003672719347	0.6605508085238047	0.14429738989377627	0.86307674731678	0.6329470545730613	0.2581526164705291	0.2652003270073314	-0.7234929304856689	0.26145690681642025	0.16504841141327545	-0.940797556841514	0.25398230554434886	0.15872023421702247	-0.8013961254141075	0.431391547530584	0.3392556742584223	-0.6585946658206225	0.4477450360106219	0.3934538025724461	-0.39270560630949103	0.42973756660213247	0.3487898651326409	-0.13663890727527384	0.3454917757192097	0.3554293609105675	0.0037180389395945735	0.35768064797111687	0.3678603436592777	0.029017258375682746	0.41844693637496927	0.42737554479457923	0.02680630690404622	0.08888759328992869	0.3318883449228841	-0.6740486981183536	0.04292829618951683	0.38388230469118134	-0.41618985929305014	0.02465482794345713	0.39773893388134374	-0.17276865684780235	0.07271788283111456	0.43094475291153544	-0.05504897511805332	0.04765118579661515	0.4390202897879351	-0.021713544201289993	0.019685178349491104	0.4560579642838055	-0.0390096543029532
80	1.6	0.3475225133338063	0.42902603455260646	-0.20225882706980278	0.33935648093570264	0.6680088568945688	0.2392250006336065	0.3273229453390353	0.8062391972735474	0.6030200095005909	0.283999358114233	0.639099135076822	0.6761592843754739	0.3532602086822187	0.6442492674812939	0.6712031855250823	0.29290250909924276	0.9229091871041607	0.6579610988490697	0.13231074297241274	0.43289164462273566	-0.20623795023185326	0.12263663450429743	0.6487325631633545	0.22146338734180587	0.11839950042909711	0.7906043890572312	0.5939503648892878	0.13073949816533792	0.6180948916994825	0.6650614652435274	0.07063771060412344	0.6776318018888188	0.6606129904753975	0.14415575417914978	0.8625239675270063	0.6327749665557574	0.25415103517895843	0.26415463521022015	-0.7231099558919621	0.2614252235571994	0.16500649857325855	-0.9407930122625169	0.25399344461258083	0.15871400108754108	-0.801369984185009	0.4268998062960229	0.33799184472517435	-0.6582323954734198	0.4477241307763849	0.3936871607636048	-0.3927089051817897	0.4255418340430461	0.34951866042536034	-0.1327812199638328	0.34493063819948916	0.3541847145422981	0.003483796051868663	0.3565983470811583	0.3646540479655329	0.026072460780581713	0.4140589646429412	0.4130545725686112	0.022527170867108384	0.08892223490448752	0.33180279701607795	-0.6740173050232254	0.03880023406121038	0.38279364393689314	-0.4159682124111546	0.02457814046253439	0.3974296580169362	-0.17311406275863442	0.0722194475809949	0.42882474902896994	-0.055692909462646184	0.04296914488956965	0.43440840136593256	-0.02619744645275617	0.02402235410577279	0.4391943834906149	-0.04292812669573583
81	1.62	0.35121015941343803	0.4146241801321905	-0.20149047112630386	0.34377240066379794	0.6505014420180422	0.23352423951137097	0.331327904896309	0.8218080478286445	0.6017627321943212	0.2842143304072663	0.639683369034183	0.6759305452566865	0.3534287045251651	0.6446656205508834	0.6668189591733632	0.29298302388636177	0.923255052963715	0.6577824785267196	0.13223539122258557	0.4328774832798685	-0.2062926414025018	0.11836963038363332	0.6474490329799271	0.22132662283878063	0.11848379126054769	0.7908787075032067	0.5939447932311933	0.13072715767755758	0.6180625606379705	0.6650853778072643	0.0705720887842965	0.6776328129759019	0.6607400861205315	0.14445932446865117	0.8633260263466263	0.6326427560228493	0.25816699427955647	0.2653012830136707	-0.7235276417998033	0.2614176921350964	0.16506687658062133	-0.940669031607492	0.25400430248134664	0.15878759005117166	-0.8013631249114238	0.4268870360988345	0.3379447009997069	-0.6582083164685999	0.44775387151178075	0.39325843762904267	-0.3926767693364239	0.4253328211501399	0.3493581789203601	-0.1328520819026495	0.34103709498782775	0.3515971580158601	-0.00375413355113052	0.3562024448620279	0.364414996340819	0.026092065866299547	0.40587214050192394	0.4270868436184638	0.022970712819751382	0.08895283687937558	0.33199503879224335	-0.6740219773565135	0.038625507049434855	0.381867611273809	-0.4197093828391119	0.020396143626557853	0.39617778444771573	-0.1768924988611047	0.06255050067863652	0.4387775363715056	-0.05923005694537679	0.042376007305605715	0.43325987833518737	-0.030100121383426517	0.014153072152865962	0.449401090276069	-0.046556904957403195
82	1.64	0.3512518995441615	0.41452950220581053	-0.20166550597755545	0.34305485783242395	0.651447090218471	0.2376782792430676	0.33129448085267493	0.8218389825487061	0.6019249852347432	0.28402722149896265	0.6396908338569866	0.6760481277533579	0.35311304127991944	0.6443526770283845	0.6670421127030354	0.29292258526465464	0.9233239475409942	0.6579477577520895	0.13223488858056218	0.43279584290091316	-0.20636367917244214	0.11842544405819966	0.6472832417663216	0.22124230044492402	0.1184779593005286	0.7909457459459126	0.5939514440974443	0.1275610076854755	0.6033253079753795	0.6573765200250649	0.07083889477519419	0.677921892831518	0.6602583234153611	0.14434483121555694	0.8634556977122387	0.6329538661544566	0.25817283365836124	0.26541235194131674	-0.7236560203172234	0.2614224699440144	0.1651486685327111	-0.9407037892274913	0.25700592060180194	0.16913050172072264	-0.804193527351388	0.4268966739074197	0.33801355611133443	-0.6582061762518971	0.4477516227149334	0.39322854850482625	-0.3927834639288584	0.4251696152676954	0.34857567611424134	-0.13651338300331153	0.3398222252130009	0.35255911609493445	-9.395797071461094e-05	0.35227322942588835	0.35373677341911175	0.02609842979994976	0.40472750304762106	0.41227697410363895	0.022645032821498934	0.08895618081321145	0.33192130155769145	-0.67412791867839	0.03868939863796095	0.38294891718342927	-0.41607041992350485	0.02097845452042538	0.39620470606924657	-0.17623991815914802	0.06536065397056803	0.41316642841071055	-0.05891708152265519	0.04005430616516318	0.4210529609541966	-0.02685780260768274	0.012174980804606517	0.43553165295627705	-0.04670984638114459
83	1.66	0.351272993377789	0.4146229196839279	-0.20180397315774057	0.3431676732163964	0.6515911483368915	0.23764825736931805	0.3313156348127068	0.8219404820708793	0.6017074441802143	0.28426238698907313	0.6396647706566837	0.6757545567907255	0.3534953539465823	0.6444487900394853	0.6666210662964659	0.2988771623771097	0.903757127191954	0.6490596387037195	0.13228660213783047	0.4329274503426865	-0.2064159887739082	0.12236280689626602	0.6487262290508631	0.22124362194723862	0.11848673956098488	0.7907602247781846	0.593929104200365	0.12787978590638302	0.6032778264766496	0.661613430296988	0.0708329899483626	0.6774856771312917	0.6602481812419808	0.1444458570698302	0.8629889859377218	0.6325079012360074	0.2543456943265131	0.2780442324345497	-0.7264880200326099	0.26142441926128934	0.1652076534683617	-0.9407976068179894	0.256935721293904	0.1696276191138858	-0.800880391645493	0.4313599136423535	0.33937779077130054	-0.6586249628387967	0.4478322253129864	0.3930937926665472	-0.39295783914621674	0.42533224914956724	0.34858695150520125	-0.1365748346349728	0.3398468101359941	0.3526158855892309	-0.00012523389605870438	0.35226725051275987	0.3531315423626847	0.026107372762058486	0.4117103969964868	0.3824224746852625	0.022012960147555657	0.08899570226638799	0.3320993829911376	-0.6741946469698195	0.03847274873569326	0.38202679513921944	-0.41971954707563597	0.02044955309760424	0.3966616651793511	-0.17302650004770434	0.06463884806976292	0.4137910305995519	-0.05539242798181261	0.04001647627406194	0.42075401693948666	-0.026623150309170666	0.01440204215163428	0.450617200770791	-0.04272318126801441
84	1.68	0.35127603925275097	0.4143848932764704	-0.20180886072891552	0.3432673633303221	0.6513494484323957	0.23755316725262635	0.3356882778512945	0.8038429413195628	0.5982225421876557	0.2878383485509159	0.6536493165957925	0.6789084625459577	0.34832388205392256	0.6412979891028461	0.6660524221368544	0.2977475383355563	0.9047387092364453	0.6541459081479759	0.12708443412500905	0.4444084841375729	-0.21123678101182353	0.1221907194529755	0.6481790540850262	0.21771952606136694	0.11853343493335496	0.791077909670301	0.5943126969836773	0.12978833593577954	0.6193945076513495	0.6693711728053059	0.07085151048500275	0.6783666876352156	0.6607429712988455	0.1448105133969464	0.8631549742910568	0.6371599770616695	0.25820336266111765	0.2654780671614791	-0.7236454174286983	0.26156296059762596	0.16680308769600613	-0.9373471202633481	0.25695812376268173	0.16957836498332343	-0.8008896186564897	0.42685759160748626	0.3376836600192348	-0.6582954552442966	0.4542238377845278	0.36423411283422424	-0.3895910909409573	0.43270683994574966	0.3354172452934294	-0.1364539160073164	0.34060966095989853	0.35147743971776174	-0.004009127912774974	0.34893627168582775	0.3667284456877875	0.026416792779818125	0.41627899080521663	0.38309867483005344	0.021711889937620344	0.08892109132702591	0.33215535602843593	-0.6742955819175055	0.03320352813883677	0.39612903463735727	-0.42161402448934615	0.020760518970887955	0.3952972471762976	-0.18024354682481367	0.06437019656761775	0.40930822362057756	-0.06331816369715867	0.034675092902208854	0.41302544319281054	-0.034060947903639734	0.013881970038483104	0.44891611098392487	-0.04696585625876523
